# xmcd
#
# Track frame offsets:
#	150
#	15646
#	32878
#	50069
#	69031
#	88823
#	115563
#	135180
#	156085
#	178338
#	193464
#	211675
#	234265
#	252177
#	265067
#	282440
#
# Disc length: 3980 seconds
#
# Revision: 0
# Processed by: cddbd v1.5.2PL0 Copyright (c) Steve Scherf et al.
# Submitted via: EasyCDDAExtractor 11.5.3.1
#
DISCID=da0f8a10
DTITLE=Murray Porter - The Murray Porter Collection
DYEAR=1900
DGENRE=Blues
TTITLE0=1492, Who Found Who?
TTITLE1=Whiteman's card
TTITLE2=Colours
TTITLE3=Cryin' in My Sleep
TTITLE4=Last Stand
TTITLE5=500 Years
TTITLE6=Heart of the Eagle
TTITLE7=Baby You're My Good Thing
TTITLE8=Drinkin' Again
TTITLE9=Make Your Mind Up
TTITLE10=My Baby's Crazy
TTITLE11=Little White Lies
TTITLE12=Trouble in the Wigwam
TTITLE13=Meat on the Bone
TTITLE14=Rez Bluez
TTITLE15=That Man Was Me
EXTD=
EXTT0=
EXTT1=
EXTT2=
EXTT3=
EXTT4=
EXTT5=
EXTT6=
EXTT7=
EXTT8=
EXTT9=
EXTT10=
EXTT11=
EXTT12=
EXTT13=
EXTT14=
EXTT15=
PLAYORDER=
